<svg height="512" viewBox="0 0 64 64" width="512" xmlns="http://www.w3.org/2000/svg" xmlns:xlink="http://www.w3.org/1999/xlink"><linearGradient id="gradient_ice" gradientUnits="userSpaceOnUse" x1="-7.488" x2="45.041" y1="55.686" y2="-9.975"><stop offset="0" stop-color="#fff200"/><stop offset="1" stop-color="#cd118c"/></linearGradient><linearGradient id="gradient_ice-2" x1="-13.622" x2="38.906" xlink:href="#gradient_ice" y1="50.778" y2="-14.883"/><linearGradient id="gradient_ice-3" x1="-7.525" x2="45.004" xlink:href="#gradient_ice" y1="55.656" y2="-10.005"/><linearGradient id="gradient_ice-4" x1="-1.427" x2="51.101" xlink:href="#gradient_ice" y1="60.534" y2="-5.127"/><linearGradient id="gradient_ice-5" x1="1.841" x2="54.369" xlink:href="#gradient_ice" y1="63.149" y2="-2.512"/><linearGradient id="gradient_ice-6" x1="3.853" x2="56.382" xlink:href="#gradient_ice" y1="64.758" y2="-.903"/><linearGradient id="gradient_ice-7" x1="-8.744" x2="43.784" xlink:href="#gradient_ice" y1="54.68" y2="-10.98"/><linearGradient id="gradient_ice-8" x1="-2.647" x2="49.882" xlink:href="#gradient_ice" y1="59.559" y2="-6.102"/><linearGradient id="gradient_ice-9" x1="-3.866" x2="48.662" xlink:href="#gradient_ice" y1="58.583" y2="-7.078"/><linearGradient id="gradient_ice-10" x1="2.231" x2="54.76" xlink:href="#gradient_ice" y1="63.461" y2="-2.2"/><linearGradient id="gradient_ice-11" x1="19.597" x2="72.125" xlink:href="#gradient_ice" y1="77.353" y2="11.692"/><linearGradient id="gradient_ice-12" x1="6.256" x2="58.784" xlink:href="#gradient_ice" y1="66.68" y2="1.02"/><linearGradient id="gradient_ice-13" x1="10.524" x2="63.053" xlink:href="#gradient_ice" y1="70.095" y2="4.434"/><linearGradient id="gradient_ice-14" x1="14.792" x2="67.321" xlink:href="#gradient_ice" y1="73.51" y2="7.849"/><g id="calendar-coffee_cup-Coffee_break-coffee_time" data-name="calendar-coffee cup-Coffee break-coffee time"><path d="m49 6h-4v-3a1 1 0 0 0 -1-1h-6a1 1 0 0 0 -1 1v3h-22v-3a1 1 0 0 0 -1-1h-6a1 1 0 0 0 -1 1v3h-4a1 1 0 0 0 -1 1v40a1 1 0 0 0 1 1h25v-2h-24v-32h44v7h2v-14a1 1 0 0 0 -1-1zm-10-2h4v5h-4zm-30 0h4v5h-4zm39 8h-44v-4h3v2a1 1 0 0 0 1 1h6a1 1 0 0 0 1-1v-2h22v2a1 1 0 0 0 1 1h6a1 1 0 0 0 1-1v-2h3z" fill="url(#gradient_ice)"/><path d="m15 17a1 1 0 0 0 -1-1h-6a1 1 0 0 0 -1 1v6a1 1 0 0 0 1 1h6a1 1 0 0 0 1-1zm-2 5h-4v-4h4z" fill="url(#gradient_ice-2)"/><path d="m25 17a1 1 0 0 0 -1-1h-6a1 1 0 0 0 -1 1v6a1 1 0 0 0 1 1h6a1 1 0 0 0 1-1zm-2 5h-4v-4h4z" fill="url(#gradient_ice-3)"/><path d="m35 23v-6a1 1 0 0 0 -1-1h-6a1 1 0 0 0 -1 1v6a1 1 0 0 0 1 1h6a1 1 0 0 0 1-1zm-2-1h-4v-4h4z" fill="url(#gradient_ice-4)"/><path d="m27 27v6h2v-5h5v-2h-6a1 1 0 0 0 -1 1z" fill="url(#gradient_ice-5)"/><path d="m43 20h2v-3a1 1 0 0 0 -1-1h-6a1 1 0 0 0 -1 1v5h2v-4h4z" fill="url(#gradient_ice-6)"/><path d="m15 27a1 1 0 0 0 -1-1h-6a1 1 0 0 0 -1 1v6a1 1 0 0 0 1 1h6a1 1 0 0 0 1-1zm-2 5h-4v-4h4z" fill="url(#gradient_ice-7)"/><path d="m25 27a1 1 0 0 0 -1-1h-6a1 1 0 0 0 -1 1v6a1 1 0 0 0 1 1h6a1 1 0 0 0 1-1zm-2 5h-4v-4h4z" fill="url(#gradient_ice-8)"/><path d="m14 36h-6a1 1 0 0 0 -1 1v6a1 1 0 0 0 1 1h6a1 1 0 0 0 1-1v-6a1 1 0 0 0 -1-1zm-1 6h-4v-4h4z" fill="url(#gradient_ice-9)"/><path d="m24 36h-6a1 1 0 0 0 -1 1v6a1 1 0 0 0 1 1h6a1 1 0 0 0 1-1v-6a1 1 0 0 0 -1-1zm-1 6h-4v-4h4z" fill="url(#gradient_ice-10)"/><path d="m59 36h-3v-2a1 1 0 0 0 -1-1h-24a1 1 0 0 0 -1 1v12a10.976 10.976 0 0 0 4.7 9h-5.7a1 1 0 0 0 -1 1v3a3.009 3.009 0 0 0 3 3h24a3.009 3.009 0 0 0 3-3v-3a1 1 0 0 0 -1-1h-5.7a10.983 10.983 0 0 0 4.65-8h3.05a3.009 3.009 0 0 0 3-3v-5a3.009 3.009 0 0 0 -3-3zm-3 21v2a1 1 0 0 1 -1 1h-24a1 1 0 0 1 -1-1v-2zm-2-19h-15v2h15v6a9.014 9.014 0 0 1 -9 9h-4a9.014 9.014 0 0 1 -9-9v-6h3v-2h-3v-3h22zm6 6a1 1 0 0 1 -1 1h-3v-7h3a1 1 0 0 1 1 1z" fill="url(#gradient_ice-11)"/><path d="m38.64 27.769c1.23-1.026 2.76-2.3 2.76-4.769h-2c0 1.531-.9 2.282-2.04 3.231-1.23 1.026-2.76 2.3-2.76 4.769h2c0-1.531.9-2.282 2.04-3.231z" fill="url(#gradient_ice-12)"/><path d="m45.64 27.769c1.23-1.026 2.76-2.3 2.76-4.769h-2c0 1.531-.9 2.282-2.04 3.231-1.23 1.026-2.76 2.3-2.76 4.769h2c0-1.531.9-2.282 2.04-3.231z" fill="url(#gradient_ice-13)"/><path d="m50.6 31c0-1.531.9-2.282 2.04-3.231 1.23-1.026 2.76-2.3 2.76-4.769h-2c0 1.531-.9 2.282-2.04 3.231-1.23 1.026-2.76 2.3-2.76 4.769z" fill="url(#gradient_ice-14)"/></g></svg>